<svg width="128" height="128" viewBox="0 0 128 128" fill="none" xmlns="http://www.w3.org/2000/svg">
<path d="M63.9999 128C99.346 128 128 99.346 128 63.9999C128 28.6537 99.346 0 63.9999 0C28.6537 0 0 28.6537 0 63.9999C0 99.346 28.6537 128 63.9999 128Z" fill="#49A0AE"/>
<path d="M94.2768 66.6982C91.9838 73.6368 82.5411 79.8427 73.9885 75.1152C73.8499 77.7469 73.8613 80.2449 74.6361 82.2378C75.0869 83.3959 76.0821 83.9882 75.9317 85.0431C72.1047 84.0335 73.7043 78.8756 73.1264 74.8989C72.7331 72.1976 69.4044 70.8677 70.1047 67.7764C68.1372 68.0392 66.2626 68.3949 64.2767 68.6393C64.4828 71.4376 67.4944 72.4885 68.5928 74.8978C69.6469 77.21 69.954 79.6334 71.1829 81.804C72.3642 83.895 74.0298 85.0004 75.0674 87.2005C70.048 85.3723 69.7082 79.5192 67.5133 75.1139C66.2793 72.6381 63.4567 71.6577 63.1972 68.8554C59.1376 68.8848 56.7234 67.2719 56.0746 63.8913C54.4315 62.6565 52.0343 62.1752 52.4053 58.9272C50.5934 58.2844 49.5525 58.3269 48.3045 59.3588C43.9935 58.7484 39.6671 60.0157 37.2971 57.2003C36.9625 56.8031 36.9625 56.0736 36.6495 55.4732C35.6521 53.5672 33.9311 51.5795 33.6278 49.6452C33.166 46.7024 34.0878 43.5635 35.5692 41.0129C35.3871 38.3834 36.6786 37.2293 37.944 36.048C39.081 32.3633 41.1668 29.6299 43.9872 27.631C44.6624 27.6756 45.5718 27.4843 45.9297 27.8462C47.6941 26.014 49.3991 24.1213 53.0522 24.1778C55.8626 21.5221 60.1323 21.8 64.0595 21.803C65.1166 21.804 66.0514 21.3157 67.0812 21.3706C67.6359 21.4008 68.2301 21.9709 68.8073 22.0182C69.6904 22.093 70.7305 21.3279 71.6136 21.3706C72.1179 21.3949 73.1488 21.8818 73.7721 22.0182C74.8171 22.2475 75.6681 22.2537 76.3622 22.4506C77.0028 22.6316 77.4565 23.3127 78.0893 23.5288C78.3532 23.6206 78.9555 23.273 79.1686 23.3135C81.1574 23.6843 83.4131 25.476 84.7803 26.5504C85.3755 26.2938 85.5381 25.9389 86.2911 26.3341C89.1602 27.3588 90.9843 30.0288 93.1973 32.1621C96.0715 34.9331 99.471 38.6672 99.2406 44.2498C101.311 45.3058 102.071 50.275 100.751 52.6668C101.676 59.1546 99.2517 64.0995 95.7866 66.9119C95.0873 67.0388 94.7843 66.7668 94.2768 66.6982ZM65.7867 22.452C66.3768 22.637 68.8883 25.7758 66.4343 26.5528C66.0079 26.0637 66.6636 25.3472 66.4343 24.3944C63.9169 21.2979 57.4685 22.7088 54.3478 24.3944C54.2881 24.7733 54.9552 25.4706 54.3478 25.6899C52.1366 24.1964 48.5683 26.3114 47.0089 28.0637C46.3834 28.8175 47.1291 29.6118 46.146 30.0069C45.3819 29.8351 45.8913 28.3921 44.8515 28.4961C41.6754 29.9958 40.1513 33.1487 38.8082 36.4818C39.5288 36.2646 39.5155 36.781 39.4559 37.3447C36.8091 36.9495 36.2595 39.7316 36.8658 41.8771C33.5965 43.7366 34.0767 52.2295 37.2974 54.3961C37.7806 53.3542 39.4831 51.52 40.7506 52.669C39.2925 53.3682 37.6269 53.8624 37.729 56.123C39.9774 58.601 47.188 59.1587 49.8156 57.2012C50.6906 57.3335 51.0857 57.945 52.1904 57.8488C52.5866 57.5982 52.34 56.7029 53.2685 56.9859C53.1148 60.3773 54.2954 62.435 56.9378 63.0281C57.2603 69.2634 65.3316 68.0051 70.3189 66.9137C69.9772 65.5879 71.6841 65.9112 72.0461 64.7553C71.6974 63.5205 70.2554 63.3819 70.1036 61.95C71.5791 62.4169 72.6292 63.3101 72.6937 65.1879C72.5978 65.956 71.8194 66.0398 71.3981 66.4824C75.5203 66.1308 81.2209 63.6315 80.0315 58.7131C79.7141 57.4002 78.4569 57.3205 77.873 55.9078C82.4914 56.6202 81.0553 64.2621 77.6578 65.189C81.1361 64.9992 83.125 63.3174 84.9955 61.5186C85.0107 60.78 84.7025 60.1383 84.9955 59.361C85.3604 58.399 86.4094 58.6555 87.154 57.8502C87.4511 57.5298 87.4703 56.591 87.8017 56.1241C88.7415 54.8031 89.9936 54.0231 90.8233 54.1809C89.8451 55.7938 87.8614 56.399 87.5853 58.7133C83.6117 59.533 86.5474 62.4637 88.4493 63.2436C91.0121 64.2967 94.1339 65.2325 95.7871 65.8337C96.0539 65.38 96.3842 64.9919 96.65 64.5381C96.0728 64.2532 95.3868 64.0763 95.5708 63.0273C96.6278 62.8353 96.5844 63.7409 97.7292 63.4597C98.5125 62.4431 98.9562 61.09 99.4553 59.7904C99.5825 58.9434 98.271 59.5368 98.5924 58.4959C100.103 58.4535 99.9447 55.5693 99.8869 53.3166C99.2301 53.2923 98.4144 54.2119 98.1608 53.3166C98.2124 52.2879 99.5655 52.5617 100.103 52.021C100.489 49.7048 100.575 45.9799 98.5924 45.3309C98.3256 45.8554 98.4096 46.7315 97.7295 46.8407C96.3197 45.5016 98.8482 44.7559 98.3772 42.955C98.3672 42.2455 97.4546 42.4397 97.5143 41.6605C97.9245 38.647 95.6658 36.4691 94.2763 34.538C90.5432 33.6962 91.1555 38.3064 89.0962 38.4226C90.1168 36.566 90.2926 33.8639 93.197 33.8912C93.3102 32.7703 92.2682 32.8049 91.6862 32.3803C89.9428 30.3823 88.4939 28.0915 85.6429 27.201C85.7996 27.9883 87.2761 29.8902 85.8592 30.2227C84.9982 26.8372 82.0503 25.5398 78.9531 24.3936C79.1219 25.4404 80.1436 28.3761 78.7378 28.926C78.0667 27.9175 78.6338 25.7618 77.8749 24.3936C76.8027 23.5731 74.8735 22.8746 73.5588 23.5307C73.31 22.9889 72.6553 22.8517 72.2643 22.4525C69.3236 23.1493 68.1453 22.5459 65.7867 22.452ZM85.4282 62.1658C83.502 63.8624 81.205 65.7805 78.522 66.0503C77.9673 66.107 77.3861 65.5682 76.7949 65.6187C74.9497 65.7754 73.1639 68.0824 70.7516 67.3459C71.4327 73.3003 75.6711 76.4673 81.975 75.7629C87.6169 75.1312 91.5147 70.4623 93.1984 66.2664C90.9835 64.5244 87.3301 64.2202 85.4282 62.1658Z" fill="#D7AF8F"/>
<path d="M72.2624 22.452C72.6535 22.8522 73.3084 22.9886 73.5569 23.5301C74.8727 22.8752 76.8019 23.5736 77.873 24.393C78.633 25.7612 78.0661 27.917 78.7359 28.9255C80.1428 28.3756 79.1211 25.4401 78.9512 24.393C82.0495 25.539 84.9975 26.8367 85.8574 30.2221C87.2742 29.8897 85.7977 27.9878 85.6411 27.2005C88.4928 28.0909 89.941 30.3818 91.6843 32.3798C92.2664 32.8044 93.3083 32.7698 93.1952 33.8906C90.2897 33.8644 90.1149 36.5658 89.0943 38.422C91.1539 38.3059 90.5414 33.6956 94.2744 34.5375C95.664 36.4688 97.9226 38.6454 97.5124 41.66C97.4527 42.4392 98.3664 42.245 98.3753 42.9545C98.8463 44.7543 96.3178 45.5011 97.7276 46.8401C98.4088 46.731 98.3248 45.8538 98.5905 45.3304C100.573 45.9802 100.487 49.704 100.101 52.0205C99.5636 52.5612 98.2095 52.2884 98.159 53.3161C98.4126 54.2114 99.2293 53.2918 99.885 53.3161C99.9426 55.5685 100.101 58.453 98.5905 58.4954C98.2691 59.5363 99.5809 58.9432 99.4534 59.7899C98.9543 61.0895 98.5095 62.4426 97.7274 63.4592C96.5833 63.74 96.6257 62.8347 95.5689 63.0268C95.3839 64.0758 96.0712 64.2527 96.6481 64.5376C96.3824 64.9913 96.051 65.3794 95.7852 65.8332C94.131 65.2309 91.0091 64.2961 88.4474 63.2431C86.5474 62.4639 83.6119 59.5333 87.5864 58.7128C87.8625 56.3985 89.8462 55.7922 90.8244 54.1803C89.9947 54.0226 88.7416 54.8029 87.8028 56.1235C87.4703 56.5905 87.4522 57.5293 87.1551 57.8496C86.4102 58.655 85.3612 58.3984 84.9966 59.3604C84.7036 60.1375 85.0118 60.7784 84.9966 61.5181C83.1261 63.3168 81.1372 64.9975 77.6589 65.1885C81.0565 64.2618 82.4925 56.6197 77.8741 55.9072C78.4583 57.32 79.7155 57.4007 80.0326 58.7125C81.2209 63.6309 75.5204 66.1311 71.3992 66.4819C71.8206 66.0392 72.5987 65.9555 72.6948 65.1874C72.6303 63.3098 71.5802 62.4164 70.1047 61.9494C70.2563 63.3814 71.6996 63.5207 72.0472 64.7547C71.6852 65.9109 69.9786 65.5874 70.32 66.9132C65.3319 68.0046 57.2614 69.2629 56.9389 63.0276C54.2951 62.4334 53.1159 60.3768 53.2696 56.9854C52.3408 56.7034 52.5874 57.5979 52.1915 57.8483C51.0868 57.9452 50.6928 57.333 49.8167 57.2006C47.1882 59.1582 39.9777 58.6002 37.7301 56.1225C37.628 53.8619 39.2936 53.3677 40.7517 52.6684C39.4845 51.5195 37.7817 53.3536 37.2985 54.3956C34.0778 52.229 33.5979 43.7361 36.8669 41.8766C36.2606 39.7311 36.8102 36.949 39.457 37.3441C39.5177 36.7802 39.5296 36.2649 38.8093 36.4812C40.1524 33.1474 41.6762 29.9953 44.8526 28.4955C45.8924 28.3915 45.383 29.8346 46.1471 30.0063C47.1315 29.6112 46.3845 28.8169 47.01 28.0631C48.5684 26.3117 52.1366 24.1967 54.3489 25.6894C54.9563 25.4701 54.2892 24.7727 54.3489 24.3938C57.4696 22.7083 63.918 21.2974 66.4354 24.3938C66.6647 25.3459 66.009 26.0624 66.4354 26.5523C68.8902 25.7753 66.3787 22.6364 65.7878 22.4514C68.1453 22.5459 69.3237 23.1493 72.2624 22.452ZM69.2399 31.3016C64.5862 31.4199 61.0552 39.8542 67.7291 40.3666C68.01 41.9128 69.4593 43.3437 70.966 42.9566C70.0221 41.8855 68.4921 41.4023 68.1607 39.7197C61.8436 39.3095 65.4777 31.9301 69.8879 31.9504C69.5959 27.3412 72.7194 26.1477 75.2832 24.3952C74.9751 24.3436 74.9194 24.0395 74.6356 23.9636C72.0866 25.6586 69.0296 26.8461 69.2399 31.3016ZM54.9957 26.3368C55.6798 27.5232 57.1855 27.8881 57.3694 29.5748C61.1551 28.8815 64.7831 29.8294 66.6507 31.7343C66.3758 28.9279 61.3239 28.3146 57.801 28.7127C57.4051 27.4879 56.2894 25.9568 54.9957 26.3368ZM78.522 31.9496C80.5058 30.9846 82.042 32.853 83.2698 32.5972C82.7896 31.3592 79.1132 29.7849 78.522 31.9496ZM42.2615 33.4604C42.975 33.9049 43.7561 32.8865 45.0679 33.2441C46.3027 33.9506 46.8304 35.3674 47.2255 36.9133C50.887 36.4888 52.5744 38.039 53.0536 40.799C54.0439 40.715 54.4431 40.3088 55.2112 40.3663C57.8458 40.5683 58.5594 44.0975 59.96 44.8988C59.6438 42.3854 57.3516 38.903 53.4843 39.9339C53.5713 38.4806 52.5747 38.1087 52.1898 37.1286C53.3995 35.7412 56.6405 37.2126 57.5852 36.4818C56.0298 35.0609 52.8113 35.6723 51.3256 36.697C50.4432 36.1401 49.1812 35.9632 47.6563 36.0494C47.7732 33.3329 44.0602 30.9824 42.2615 33.4604ZM83.485 39.071C83.7529 41.5692 82.3037 42.3503 79.8165 42.0927C79.5872 44.2946 77.1203 45.8762 74.8517 44.6827C74.1735 46.4552 71.1924 45.7185 70.3192 44.6827C70.9204 48.8989 62.2941 47.1891 59.7434 49.6468C57.7394 47.5499 53.0798 48.1098 52.4046 44.6827C51.3737 44.1663 48.9554 43.5165 48.3037 44.8991C51.8134 44.0299 52.8686 47.1526 54.7786 48.5683C57.488 48.3045 58.5105 49.7275 59.9587 50.7268C62.2881 47.8043 69.2894 49.5536 71.1813 46.1943C71.6715 46.5673 72.3869 46.7159 73.3398 46.6259C74.116 46.3945 74.6777 45.9507 75.2822 45.5478C77.4288 46.6535 79.85 44.7737 80.4623 42.9577C83.0858 42.992 84.4813 41.7975 84.1316 38.8568C85.2543 38.4698 86.6328 38.3364 86.7216 36.9144C84.3023 39.0397 80.2692 38.0574 79.3828 35.1873C78.8132 37.5794 81.3568 38.6659 83.485 39.071ZM85.8598 44.037C84.0619 47.4184 81.0556 49.5922 77.0112 50.7271C78.6776 51.9357 80.0834 50.1027 81.9753 50.7271C82.7091 51.577 82.4744 53.3941 83.0545 54.3964C85.2051 54.5692 88.9968 55.5202 88.8815 53.3182C87.58 54.2592 85.6516 53.8578 83.7022 53.7487C83.118 53.1111 83.3403 51.6648 83.0545 50.7282C82.6634 50.1834 81.6366 50.2755 81.3273 49.6489C83.1828 48.0511 85.5838 46.9992 86.7238 44.6849C88.6641 44.4677 90.0606 43.7056 90.3923 41.8796C90.3469 41.6381 90.1527 41.543 89.9607 41.4472C89.319 43.0344 88.1377 44.0826 85.8598 44.037ZM38.1606 44.4664C41.8088 44.2268 43.2518 47.9893 44.8515 50.5097C43.7509 50.8481 42.5324 51.0674 42.2615 52.2358C43.271 52.6006 44.0521 51.0563 45.4994 51.1576C47.4246 52.2541 49.8064 52.8937 50.6796 55.0432C51.4174 54.2589 49.9298 53.0049 50.248 52.6684C52.0146 52.521 52.9453 54.2379 54.1325 53.9629C53.6696 52.6098 51.0714 51.392 49.6001 52.4521C48.4409 51.308 47.4667 51.7164 46.3621 50.9413C43.4414 48.8927 43.1514 42.9647 37.944 43.6035C37.9291 43.9805 37.9929 44.2754 38.1606 44.4664ZM55.4273 56.1225C56.4036 56.4973 56.6208 55.5688 57.5858 55.4737C60.101 55.229 61.5281 56.8592 61.6866 59.5757C63.9999 58.8492 66.2423 59.8555 67.082 61.3018C68.5302 59.5363 71.8327 60.6004 73.1253 61.0865C72.6211 59.1665 68.8181 59.2654 67.2973 60.2225C66.1775 59.1474 64.3121 58.2863 62.3332 58.7128C62.489 55.3009 57.307 53.0009 55.4273 56.1225ZM94.2768 56.7693C95.0004 57.4847 94.2587 59.6656 95.1397 60.2225C95.7309 59.5484 95.2791 58.6682 95.5713 58.0649C96.6214 57.7254 97.9958 58.7914 97.9451 57.6325C97.3841 56.9775 96.0078 57.2211 95.1397 57.4172C95.0196 56.0258 94.3344 55.201 92.9821 55.0424C92.8441 56.1892 94.1161 55.9245 94.2768 56.7693ZM69.2399 65.1874C68.5558 61.991 64.4023 64.4174 61.6858 63.8929C59.6324 63.4937 59.8496 62.0415 58.0165 61.3029C58.1791 66.1151 66.2061 63.2328 69.2399 65.1874Z" fill="#E9C29C"/>
<path d="M74.6364 23.9628C74.9194 24.0387 74.9759 24.3428 75.284 24.3944C72.7202 26.1458 69.5964 27.3401 69.8886 31.9496C65.4785 31.9293 61.8443 39.3087 68.1615 39.7189C68.4929 41.4015 70.0229 41.8855 70.9668 42.9558C69.46 43.3439 68.0108 41.9128 67.7299 40.3658C61.056 39.8534 64.5859 31.4191 69.2407 31.3008C69.0295 26.8461 72.0866 25.6586 74.6364 23.9628Z" fill="#D7AF8F"/>
<path d="M57.801 28.7116C61.3239 28.3135 66.3757 28.9268 66.6507 31.7332C64.7831 29.8284 61.1551 28.8815 57.3694 29.5737C57.1855 27.887 55.6798 27.5222 54.9957 26.3357C56.2893 25.9568 57.405 27.4879 57.801 28.7116Z" fill="#D7AF8F"/>
<path d="M83.2698 32.5961C82.042 32.8519 80.5058 30.9832 78.522 31.9485C79.1132 29.7849 82.7896 31.3592 83.2698 32.5961Z" fill="#D7AF8F"/>
<path d="M47.6568 36.0494C49.1817 35.9635 50.444 36.1404 51.3261 36.697C52.8115 35.6723 56.0303 35.0609 57.5857 36.4818C56.6399 37.2123 53.4 35.7409 52.1903 37.1286C52.5755 38.1098 53.5729 38.4809 53.4848 39.9339C57.3524 38.903 59.6432 42.3857 59.9605 44.8988C58.5599 44.0975 57.8463 40.5683 55.2117 40.3663C54.4425 40.3077 54.0444 40.715 53.0541 40.7987C52.5749 38.0399 50.8875 36.4885 47.226 36.9131C46.8309 35.3669 46.3034 33.95 45.0684 33.2438C43.7577 32.8859 42.9755 33.9047 42.262 33.4601C44.0602 30.9824 47.7732 33.3329 47.6568 36.0494Z" fill="#D7AF8F"/>
<path d="M79.3849 35.1865C80.2703 38.0566 84.3044 39.0389 86.7238 36.9136C86.635 38.3356 85.2565 38.469 84.1338 38.856C84.4835 41.7958 83.0877 42.9912 80.4644 42.9569C79.8519 44.774 77.4306 46.6527 75.2843 45.547C74.6799 45.9502 74.1181 46.3948 73.3419 46.6251C72.3899 46.7151 71.6734 46.5665 71.1834 46.1935C69.2907 49.5528 62.2903 47.8043 59.9608 50.726C58.5127 49.7275 57.4899 48.3048 54.7807 48.5675C52.8707 47.1526 51.8158 44.0291 48.3058 44.8982C48.9586 43.5157 51.3761 44.1655 52.4067 44.6819C53.0819 48.1087 57.7405 47.5488 59.7456 49.646C62.2962 47.1882 70.9225 48.8981 70.3214 44.6819C71.1945 45.7177 74.1757 46.4544 74.8538 44.6819C77.1225 45.8765 79.5894 44.2938 79.8187 42.0919C82.3058 42.3495 83.7548 41.5674 83.4872 39.0702C81.3568 38.6659 78.8132 37.5794 79.3849 35.1865Z" fill="#D7AF8F"/>
<path d="M89.9607 41.4447C90.1527 41.5406 90.3467 41.6346 90.3923 41.8774C90.0609 43.7045 88.6643 44.4664 86.7238 44.6827C85.5838 46.997 83.1839 48.049 81.3274 49.6468C81.6366 50.2734 82.6634 50.1813 83.0545 50.726C83.3405 51.6637 83.1183 53.1089 83.7022 53.7466C85.6527 53.8557 87.5797 54.257 88.8815 53.3161C88.9968 55.5191 85.2049 54.5671 83.0545 54.3942C82.4744 53.3917 82.7088 51.5746 81.9753 50.7249C80.0826 50.1005 78.6779 51.9336 77.0112 50.7249C81.0557 49.5901 84.063 47.4162 85.8598 44.0348C88.1377 44.0826 89.319 43.0344 89.9607 41.4447Z" fill="#D7AF8F"/>
<path d="M37.9442 43.6046C43.1516 42.9658 43.4417 48.893 46.3623 50.9423C47.467 51.7186 48.44 51.3091 49.6003 52.4532C51.0717 51.3931 53.6699 52.6109 54.1328 53.964C52.9452 54.2379 52.0145 52.5218 50.2482 52.6695C49.9298 53.006 51.4185 54.2592 50.6798 55.0443C49.8066 52.8947 47.4248 52.2552 45.4997 51.1587C44.0534 51.0577 43.2713 52.6028 42.2617 52.2368C42.5326 51.0685 43.7512 50.8494 44.8518 50.5108C43.2521 47.9904 41.8099 44.2271 38.1608 44.4675C37.9928 44.2754 37.9291 43.9805 37.9442 43.6046Z" fill="#D7AF8F"/>
<path d="M62.3335 58.7125C64.3121 58.2861 66.1778 59.1471 67.2975 60.2223C68.8175 59.2662 72.6213 59.1663 73.1256 61.0862C71.833 60.6001 68.5294 59.536 67.0823 61.3015C66.2415 59.8555 64.0001 58.8489 61.6869 59.5754C61.5292 56.859 60.1024 55.229 57.586 55.4735C56.621 55.5685 56.4047 56.4971 55.4276 56.1222C57.307 53.0009 62.489 55.3009 62.3335 58.7125Z" fill="#D7AF8F"/>
<path d="M92.9823 55.0432C94.3346 55.201 95.0206 56.0266 95.14 57.418C96.008 57.222 97.3854 56.9775 97.9453 57.6333C97.9958 58.7914 96.6214 57.7262 95.5716 58.0657C95.2796 58.669 95.7312 59.5492 95.14 60.2233C94.2587 59.6664 95.0006 57.4856 94.2771 56.7701C94.1161 55.9245 92.8441 56.1892 92.9823 55.0432Z" fill="#D7AF8F"/>
<path d="M58.0173 61.3018C59.8496 62.0405 59.6332 63.4937 61.6866 63.8918C64.4031 64.4174 68.5566 61.9899 69.2408 65.1863C66.2061 63.2329 58.1791 66.1151 58.0173 61.3018Z" fill="#D7AF8F"/>
<path d="M93.1987 66.2666C91.515 70.4626 87.6172 75.1314 81.9753 75.7631C75.6713 76.4675 71.433 73.2995 70.7518 67.3461C73.1642 68.0829 74.9497 65.7756 76.7951 65.619C77.3863 65.5685 77.9673 66.1062 78.5223 66.0506C81.2063 65.7808 83.5034 63.8627 85.4285 62.166C87.3301 64.2202 90.9835 64.5244 93.1987 66.2666Z" fill="#E9C29C"/>
<path d="M95.5724 104.038C93.7402 99.727 90.2397 92.1405 88.8814 86.1234C87.2634 78.9574 95.9402 70.4847 99.0267 66.2666C102.862 61.0238 104.346 52.064 102.265 43.6043C100.489 36.3918 95.9121 31.5914 90.1781 27.6321C83.5042 23.024 74.7809 19.2485 63.1985 20.0771C58.1588 20.438 52.1418 22.2529 47.8742 24.1791C40.1262 27.6737 33.523 34.3071 32.3347 44.0359C32.077 46.1438 32.6904 48.3944 32.551 50.9413C32.1589 58.1113 26.441 60.5631 23.0545 65.6179C25.0231 68.8143 32.5883 70.5425 28.0185 75.7621C28.6543 76.9969 30.9997 76.5221 31.6878 77.7045C31.8434 79.4438 29.7414 78.9233 29.3141 80.0793C30.4339 81.7468 31.4383 81.6981 31.9042 83.3173C33.2078 87.8487 28.1954 93.3542 34.9258 94.3246C40.9237 95.1886 47.5631 91.8528 53.9197 93.0301C55.6063 94.3044 56.3715 96.7561 56.9413 99.5058C57.4415 101.918 58.712 104.859 57.8042 106.627C55.6052 106.211 55.6042 103.148 55.2142 101.016C54.7656 98.563 54.3713 96.3548 53.0565 94.9733C44.5263 93.8233 37.0743 99.0572 31.2573 95.1897C30.257 94.5237 29.2917 93.0099 29.0989 91.9517C28.6381 89.4313 30.4663 87.2556 29.9618 84.3976C29.5807 82.2329 25.8347 81.4173 28.0194 78.3543C25.116 77.7439 26.1447 73.7532 27.5878 72.311C25.9889 69.352 21.2566 69.8271 21.1129 65.8361C21.0049 62.8318 24.178 61.5554 25.6454 60.007C27.2745 58.292 29.9615 54.6003 30.3942 52.2376C30.846 49.7688 30.096 47.3676 30.1778 45.5475C30.6651 34.8221 37.4035 27.449 45.2869 23.3168C49.7345 20.9843 55.4605 19.2531 60.3951 18.3527C72.6059 16.1224 85.4171 21.3449 93.4177 27.4176C101.087 33.2386 105.946 41.6619 105.289 53.534C104.88 60.9183 102.734 64.9759 99.0305 69.5062C97.3862 71.5162 95.735 73.5091 94.2817 75.7648C92.8346 78.0124 90.5214 81.6382 90.8284 85.046C91.1155 88.2262 92.783 91.7289 93.8501 94.7586C94.9204 97.7984 96.7788 100.585 96.8717 104.04H95.5721V104.038H95.5724Z" fill="#BEBEBE"/>
</svg>
