<svg width="422" height="748" viewBox="0 0 422 748" fill="none" xmlns="http://www.w3.org/2000/svg">
<g clip-path="url(#clip0_11_192)">
<rect width="422" height="748" rx="16" fill="#954747"/>
<rect x="41" y="168.634" width="317" height="29.2188" fill="white"/>
<rect x="357" y="168.634" width="64" height="29.2188" fill="white"/>
<path d="M380.24 223.24C379.547 223.24 378.96 223 378.48 222.52C378 222.04 377.76 221.453 377.76 220.76C377.76 220.067 378 219.48 378.48 219C378.96 218.52 379.547 218.28 380.24 218.28C380.907 218.28 381.467 218.52 381.92 219C382.4 219.48 382.64 220.067 382.64 220.76C382.64 221.453 382.4 222.04 381.92 222.52C381.467 223 380.907 223.24 380.24 223.24ZM388.638 223.24C387.945 223.24 387.358 223 386.878 222.52C386.398 222.04 386.158 221.453 386.158 220.76C386.158 220.067 386.398 219.48 386.878 219C387.358 218.52 387.945 218.28 388.638 218.28C389.305 218.28 389.865 218.52 390.318 219C390.798 219.48 391.038 220.067 391.038 220.76C391.038 221.453 390.798 222.04 390.318 222.52C389.865 223 389.305 223.24 388.638 223.24ZM397.037 223.24C396.344 223.24 395.757 223 395.277 222.52C394.797 222.04 394.557 221.453 394.557 220.76C394.557 220.067 394.797 219.48 395.277 219C395.757 218.52 396.344 218.28 397.037 218.28C397.704 218.28 398.264 218.52 398.717 219C399.197 219.48 399.437 220.067 399.437 220.76C399.437 221.453 399.197 222.04 398.717 222.52C398.264 223 397.704 223.24 397.037 223.24Z" fill="black" fill-opacity="0.56"/>
<rect x="6" y="168.634" width="35" height="29.2188" fill="white"/>
<rect x="13" y="175.312" width="20" height="16.6964" fill="white"/>
<rect x="13.5" y="175.812" width="19" height="15.6964" stroke="black" stroke-opacity="0.28"/>
<path d="M70.216 225L67.892 221.01H66.352V225H65.078V215.242H68.228C68.9653 215.242 69.586 215.368 70.09 215.62C70.6033 215.872 70.986 216.213 71.238 216.642C71.49 217.071 71.616 217.561 71.616 218.112C71.616 218.784 71.42 219.377 71.028 219.89C70.6453 220.403 70.0667 220.744 69.292 220.912L71.742 225H70.216ZM66.352 219.988H68.228C68.9187 219.988 69.4367 219.82 69.782 219.484C70.1273 219.139 70.3 218.681 70.3 218.112C70.3 217.533 70.1273 217.085 69.782 216.768C69.446 216.451 68.928 216.292 68.228 216.292H66.352V219.988ZM73.1196 221.136C73.1196 220.352 73.2782 219.666 73.5956 219.078C73.9129 218.481 74.3469 218.019 74.8976 217.692C75.4576 217.365 76.0782 217.202 76.7596 217.202C77.4316 217.202 78.0149 217.347 78.5096 217.636C79.0042 217.925 79.3729 218.289 79.6156 218.728V217.328H80.9036V225H79.6156V223.572C79.3636 224.02 78.9856 224.393 78.4816 224.692C77.9869 224.981 77.4082 225.126 76.7456 225.126C76.0642 225.126 75.4482 224.958 74.8976 224.622C74.3469 224.286 73.9129 223.815 73.5956 223.208C73.2782 222.601 73.1196 221.911 73.1196 221.136ZM79.6156 221.15C79.6156 220.571 79.4989 220.067 79.2656 219.638C79.0322 219.209 78.7149 218.882 78.3136 218.658C77.9216 218.425 77.4876 218.308 77.0116 218.308C76.5356 218.308 76.1016 218.42 75.7096 218.644C75.3176 218.868 75.0049 219.195 74.7716 219.624C74.5382 220.053 74.4216 220.557 74.4216 221.136C74.4216 221.724 74.5382 222.237 74.7716 222.676C75.0049 223.105 75.3176 223.437 75.7096 223.67C76.1016 223.894 76.5356 224.006 77.0116 224.006C77.4876 224.006 77.9216 223.894 78.3136 223.67C78.7149 223.437 79.0322 223.105 79.2656 222.676C79.4989 222.237 79.6156 221.729 79.6156 221.15ZM84.3305 214.64V225H83.0565V214.64H84.3305ZM87.7758 218.742C88.0278 218.303 88.4012 217.939 88.8958 217.65C89.3998 217.351 89.9832 217.202 90.6458 217.202C91.3272 217.202 91.9432 217.365 92.4938 217.692C93.0538 218.019 93.4925 218.481 93.8098 219.078C94.1272 219.666 94.2858 220.352 94.2858 221.136C94.2858 221.911 94.1272 222.601 93.8098 223.208C93.4925 223.815 93.0538 224.286 92.4938 224.622C91.9432 224.958 91.3272 225.126 90.6458 225.126C89.9925 225.126 89.4138 224.981 88.9098 224.692C88.4152 224.393 88.0372 224.025 87.7758 223.586V228.64H86.5018V217.328H87.7758V218.742ZM92.9838 221.136C92.9838 220.557 92.8672 220.053 92.6338 219.624C92.4005 219.195 92.0832 218.868 91.6818 218.644C91.2898 218.42 90.8558 218.308 90.3798 218.308C89.9132 218.308 89.4792 218.425 89.0778 218.658C88.6858 218.882 88.3685 219.213 88.1258 219.652C87.8925 220.081 87.7758 220.581 87.7758 221.15C87.7758 221.729 87.8925 222.237 88.1258 222.676C88.3685 223.105 88.6858 223.437 89.0778 223.67C89.4792 223.894 89.9132 224.006 90.3798 224.006C90.8558 224.006 91.2898 223.894 91.6818 223.67C92.0832 223.437 92.4005 223.105 92.6338 222.676C92.8672 222.237 92.9838 221.724 92.9838 221.136ZM99.7708 217.188C100.349 217.188 100.872 217.314 101.339 217.566C101.805 217.809 102.169 218.177 102.431 218.672C102.701 219.167 102.837 219.769 102.837 220.478V225H101.577V220.66C101.577 219.895 101.385 219.311 101.003 218.91C100.62 218.499 100.097 218.294 99.4348 218.294C98.7628 218.294 98.2261 218.504 97.8248 218.924C97.4328 219.344 97.2368 219.955 97.2368 220.758V225H95.9628V214.64H97.2368V218.42C97.4888 218.028 97.8341 217.725 98.2728 217.51C98.7208 217.295 99.2201 217.188 99.7708 217.188ZM109.924 216.278V219.54H113.48V220.59H109.924V223.95H113.9V225H108.65V215.228H113.9V216.278H109.924ZM115.352 221.136C115.352 220.352 115.511 219.666 115.828 219.078C116.145 218.481 116.579 218.019 117.13 217.692C117.69 217.365 118.315 217.202 119.006 217.202C119.603 217.202 120.159 217.342 120.672 217.622C121.185 217.893 121.577 218.252 121.848 218.7V214.64H123.136V225H121.848V223.558C121.596 224.015 121.223 224.393 120.728 224.692C120.233 224.981 119.655 225.126 118.992 225.126C118.311 225.126 117.69 224.958 117.13 224.622C116.579 224.286 116.145 223.815 115.828 223.208C115.511 222.601 115.352 221.911 115.352 221.136ZM121.848 221.15C121.848 220.571 121.731 220.067 121.498 219.638C121.265 219.209 120.947 218.882 120.546 218.658C120.154 218.425 119.72 218.308 119.244 218.308C118.768 218.308 118.334 218.42 117.942 218.644C117.55 218.868 117.237 219.195 117.004 219.624C116.771 220.053 116.654 220.557 116.654 221.136C116.654 221.724 116.771 222.237 117.004 222.676C117.237 223.105 117.55 223.437 117.942 223.67C118.334 223.894 118.768 224.006 119.244 224.006C119.72 224.006 120.154 223.894 120.546 223.67C120.947 223.437 121.265 223.105 121.498 222.676C121.731 222.237 121.848 221.729 121.848 221.15ZM135.509 217.328L133.115 225H131.799L129.951 218.91L128.103 225H126.787L124.379 217.328H125.681L127.445 223.768L129.349 217.328H130.651L132.513 223.782L134.249 217.328H135.509ZM136.297 221.136C136.297 220.352 136.456 219.666 136.773 219.078C137.091 218.481 137.525 218.019 138.075 217.692C138.635 217.365 139.256 217.202 139.937 217.202C140.609 217.202 141.193 217.347 141.687 217.636C142.182 217.925 142.551 218.289 142.793 218.728V217.328H144.081V225H142.793V223.572C142.541 224.02 142.163 224.393 141.659 224.692C141.165 224.981 140.586 225.126 139.923 225.126C139.242 225.126 138.626 224.958 138.075 224.622C137.525 224.286 137.091 223.815 136.773 223.208C136.456 222.601 136.297 221.911 136.297 221.136ZM142.793 221.15C142.793 220.571 142.677 220.067 142.443 219.638C142.21 219.209 141.893 218.882 141.491 218.658C141.099 218.425 140.665 218.308 140.189 218.308C139.713 218.308 139.279 218.42 138.887 218.644C138.495 218.868 138.183 219.195 137.949 219.624C137.716 220.053 137.599 220.557 137.599 221.136C137.599 221.724 137.716 222.237 137.949 222.676C138.183 223.105 138.495 223.437 138.887 223.67C139.279 223.894 139.713 224.006 140.189 224.006C140.665 224.006 141.099 223.894 141.491 223.67C141.893 223.437 142.21 223.105 142.443 222.676C142.677 222.237 142.793 221.729 142.793 221.15ZM147.508 218.574C147.732 218.135 148.05 217.795 148.46 217.552C148.88 217.309 149.389 217.188 149.986 217.188V218.504H149.65C148.222 218.504 147.508 219.279 147.508 220.828V225H146.234V217.328H147.508V218.574ZM150.981 221.136C150.981 220.352 151.14 219.666 151.457 219.078C151.774 218.481 152.208 218.019 152.759 217.692C153.319 217.365 153.944 217.202 154.635 217.202C155.232 217.202 155.788 217.342 156.301 217.622C156.814 217.893 157.206 218.252 157.477 218.7V214.64H158.765V225H157.477V223.558C157.225 224.015 156.852 224.393 156.357 224.692C155.862 224.981 155.284 225.126 154.621 225.126C153.94 225.126 153.319 224.958 152.759 224.622C152.208 224.286 151.774 223.815 151.457 223.208C151.14 222.601 150.981 221.911 150.981 221.136ZM157.477 221.15C157.477 220.571 157.36 220.067 157.127 219.638C156.894 219.209 156.576 218.882 156.175 218.658C155.783 218.425 155.349 218.308 154.873 218.308C154.397 218.308 153.963 218.42 153.571 218.644C153.179 218.868 152.866 219.195 152.633 219.624C152.4 220.053 152.283 220.557 152.283 221.136C152.283 221.724 152.4 222.237 152.633 222.676C152.866 223.105 153.179 223.437 153.571 223.67C153.963 223.894 154.397 224.006 154.873 224.006C155.349 224.006 155.783 223.894 156.175 223.67C156.576 223.437 156.894 223.105 157.127 222.676C157.36 222.237 157.477 221.729 157.477 221.15ZM163.634 225.126C163.046 225.126 162.519 225.028 162.052 224.832C161.585 224.627 161.217 224.347 160.946 223.992C160.675 223.628 160.526 223.213 160.498 222.746H161.814C161.851 223.129 162.029 223.441 162.346 223.684C162.673 223.927 163.097 224.048 163.62 224.048C164.105 224.048 164.488 223.941 164.768 223.726C165.048 223.511 165.188 223.241 165.188 222.914C165.188 222.578 165.039 222.331 164.74 222.172C164.441 222.004 163.979 221.841 163.354 221.682C162.785 221.533 162.318 221.383 161.954 221.234C161.599 221.075 161.291 220.847 161.03 220.548C160.778 220.24 160.652 219.839 160.652 219.344C160.652 218.952 160.769 218.593 161.002 218.266C161.235 217.939 161.567 217.683 161.996 217.496C162.425 217.3 162.915 217.202 163.466 217.202C164.315 217.202 165.001 217.417 165.524 217.846C166.047 218.275 166.327 218.863 166.364 219.61H165.09C165.062 219.209 164.899 218.887 164.6 218.644C164.311 218.401 163.919 218.28 163.424 218.28C162.967 218.28 162.603 218.378 162.332 218.574C162.061 218.77 161.926 219.027 161.926 219.344C161.926 219.596 162.005 219.806 162.164 219.974C162.332 220.133 162.537 220.263 162.78 220.366C163.032 220.459 163.377 220.567 163.816 220.688C164.367 220.837 164.815 220.987 165.16 221.136C165.505 221.276 165.799 221.491 166.042 221.78C166.294 222.069 166.425 222.447 166.434 222.914C166.434 223.334 166.317 223.712 166.084 224.048C165.851 224.384 165.519 224.65 165.09 224.846C164.67 225.033 164.185 225.126 163.634 225.126Z" fill="#6C757D"/>
<rect x="38" y="197.853" width="317" height="29.2188" fill="white"/>
<rect x="354" y="197.853" width="64" height="29.2188" fill="white"/>
<path d="M377.24 258.24C376.547 258.24 375.96 258 375.48 257.52C375 257.04 374.76 256.453 374.76 255.76C374.76 255.067 375 254.48 375.48 254C375.96 253.52 376.547 253.28 377.24 253.28C377.907 253.28 378.467 253.52 378.92 254C379.4 254.48 379.64 255.067 379.64 255.76C379.64 256.453 379.4 257.04 378.92 257.52C378.467 258 377.907 258.24 377.24 258.24ZM385.638 258.24C384.945 258.24 384.358 258 383.878 257.52C383.398 257.04 383.158 256.453 383.158 255.76C383.158 255.067 383.398 254.48 383.878 254C384.358 253.52 384.945 253.28 385.638 253.28C386.305 253.28 386.865 253.52 387.318 254C387.798 254.48 388.038 255.067 388.038 255.76C388.038 256.453 387.798 257.04 387.318 257.52C386.865 258 386.305 258.24 385.638 258.24ZM394.037 258.24C393.344 258.24 392.757 258 392.277 257.52C391.797 257.04 391.557 256.453 391.557 255.76C391.557 255.067 391.797 254.48 392.277 254C392.757 253.52 393.344 253.28 394.037 253.28C394.704 253.28 395.264 253.52 395.717 254C396.197 254.48 396.437 255.067 396.437 255.76C396.437 256.453 396.197 257.04 395.717 257.52C395.264 258 394.704 258.24 394.037 258.24Z" fill="black" fill-opacity="0.56"/>
<rect x="3" y="197.853" width="35" height="29.2188" fill="white"/>
<rect x="10" y="204.531" width="20" height="16.6964" fill="white"/>
<rect x="10.5" y="205.031" width="19" height="15.6964" stroke="black" stroke-opacity="0.28"/>
<path d="M67.216 260L64.892 256.01H63.352V260H62.078V250.242H65.228C65.9653 250.242 66.586 250.368 67.09 250.62C67.6033 250.872 67.986 251.213 68.238 251.642C68.49 252.071 68.616 252.561 68.616 253.112C68.616 253.784 68.42 254.377 68.028 254.89C67.6453 255.403 67.0667 255.744 66.292 255.912L68.742 260H67.216ZM63.352 254.988H65.228C65.9187 254.988 66.4367 254.82 66.782 254.484C67.1273 254.139 67.3 253.681 67.3 253.112C67.3 252.533 67.1273 252.085 66.782 251.768C66.446 251.451 65.928 251.292 65.228 251.292H63.352V254.988ZM70.1196 256.136C70.1196 255.352 70.2782 254.666 70.5956 254.078C70.9129 253.481 71.3469 253.019 71.8976 252.692C72.4576 252.365 73.0782 252.202 73.7596 252.202C74.4316 252.202 75.0149 252.347 75.5096 252.636C76.0042 252.925 76.3729 253.289 76.6156 253.728V252.328H77.9036V260H76.6156V258.572C76.3636 259.02 75.9856 259.393 75.4816 259.692C74.9869 259.981 74.4082 260.126 73.7456 260.126C73.0642 260.126 72.4482 259.958 71.8976 259.622C71.3469 259.286 70.9129 258.815 70.5956 258.208C70.2782 257.601 70.1196 256.911 70.1196 256.136ZM76.6156 256.15C76.6156 255.571 76.4989 255.067 76.2656 254.638C76.0322 254.209 75.7149 253.882 75.3136 253.658C74.9216 253.425 74.4876 253.308 74.0116 253.308C73.5356 253.308 73.1016 253.42 72.7096 253.644C72.3176 253.868 72.0049 254.195 71.7716 254.624C71.5382 255.053 71.4216 255.557 71.4216 256.136C71.4216 256.724 71.5382 257.237 71.7716 257.676C72.0049 258.105 72.3176 258.437 72.7096 258.67C73.1016 258.894 73.5356 259.006 74.0116 259.006C74.4876 259.006 74.9216 258.894 75.3136 258.67C75.7149 258.437 76.0322 258.105 76.2656 257.676C76.4989 257.237 76.6156 256.729 76.6156 256.15ZM81.3305 249.64V260H80.0565V249.64H81.3305ZM84.7758 253.742C85.0278 253.303 85.4012 252.939 85.8958 252.65C86.3998 252.351 86.9832 252.202 87.6458 252.202C88.3272 252.202 88.9432 252.365 89.4938 252.692C90.0538 253.019 90.4925 253.481 90.8098 254.078C91.1272 254.666 91.2858 255.352 91.2858 256.136C91.2858 256.911 91.1272 257.601 90.8098 258.208C90.4925 258.815 90.0538 259.286 89.4938 259.622C88.9432 259.958 88.3272 260.126 87.6458 260.126C86.9925 260.126 86.4138 259.981 85.9098 259.692C85.4152 259.393 85.0372 259.025 84.7758 258.586V263.64H83.5018V252.328H84.7758V253.742ZM89.9838 256.136C89.9838 255.557 89.8672 255.053 89.6338 254.624C89.4005 254.195 89.0832 253.868 88.6818 253.644C88.2898 253.42 87.8558 253.308 87.3798 253.308C86.9132 253.308 86.4792 253.425 86.0778 253.658C85.6858 253.882 85.3685 254.213 85.1258 254.652C84.8925 255.081 84.7758 255.581 84.7758 256.15C84.7758 256.729 84.8925 257.237 85.1258 257.676C85.3685 258.105 85.6858 258.437 86.0778 258.67C86.4792 258.894 86.9132 259.006 87.3798 259.006C87.8558 259.006 88.2898 258.894 88.6818 258.67C89.0832 258.437 89.4005 258.105 89.6338 257.676C89.8672 257.237 89.9838 256.724 89.9838 256.136ZM96.7708 252.188C97.3494 252.188 97.8721 252.314 98.3388 252.566C98.8054 252.809 99.1694 253.177 99.4308 253.672C99.7014 254.167 99.8368 254.769 99.8368 255.478V260H98.5768V255.66C98.5768 254.895 98.3854 254.311 98.0028 253.91C97.6201 253.499 97.0974 253.294 96.4348 253.294C95.7628 253.294 95.2261 253.504 94.8248 253.924C94.4328 254.344 94.2368 254.955 94.2368 255.758V260H92.9628V249.64H94.2368V253.42C94.4888 253.028 94.8341 252.725 95.2728 252.51C95.7208 252.295 96.2201 252.188 96.7708 252.188ZM106.924 251.278V254.54H110.48V255.59H106.924V258.95H110.9V260H105.65V250.228H110.9V251.278H106.924ZM112.352 256.136C112.352 255.352 112.511 254.666 112.828 254.078C113.145 253.481 113.579 253.019 114.13 252.692C114.69 252.365 115.315 252.202 116.006 252.202C116.603 252.202 117.159 252.342 117.672 252.622C118.185 252.893 118.577 253.252 118.848 253.7V249.64H120.136V260H118.848V258.558C118.596 259.015 118.223 259.393 117.728 259.692C117.233 259.981 116.655 260.126 115.992 260.126C115.311 260.126 114.69 259.958 114.13 259.622C113.579 259.286 113.145 258.815 112.828 258.208C112.511 257.601 112.352 256.911 112.352 256.136ZM118.848 256.15C118.848 255.571 118.731 255.067 118.498 254.638C118.265 254.209 117.947 253.882 117.546 253.658C117.154 253.425 116.72 253.308 116.244 253.308C115.768 253.308 115.334 253.42 114.942 253.644C114.55 253.868 114.237 254.195 114.004 254.624C113.771 255.053 113.654 255.557 113.654 256.136C113.654 256.724 113.771 257.237 114.004 257.676C114.237 258.105 114.55 258.437 114.942 258.67C115.334 258.894 115.768 259.006 116.244 259.006C116.72 259.006 117.154 258.894 117.546 258.67C117.947 258.437 118.265 258.105 118.498 257.676C118.731 257.237 118.848 256.729 118.848 256.15ZM132.509 252.328L130.115 260H128.799L126.951 253.91L125.103 260H123.787L121.379 252.328H122.681L124.445 258.768L126.349 252.328H127.651L129.513 258.782L131.249 252.328H132.509ZM133.297 256.136C133.297 255.352 133.456 254.666 133.773 254.078C134.091 253.481 134.525 253.019 135.075 252.692C135.635 252.365 136.256 252.202 136.937 252.202C137.609 252.202 138.193 252.347 138.687 252.636C139.182 252.925 139.551 253.289 139.793 253.728V252.328H141.081V260H139.793V258.572C139.541 259.02 139.163 259.393 138.659 259.692C138.165 259.981 137.586 260.126 136.923 260.126C136.242 260.126 135.626 259.958 135.075 259.622C134.525 259.286 134.091 258.815 133.773 258.208C133.456 257.601 133.297 256.911 133.297 256.136ZM139.793 256.15C139.793 255.571 139.677 255.067 139.443 254.638C139.21 254.209 138.893 253.882 138.491 253.658C138.099 253.425 137.665 253.308 137.189 253.308C136.713 253.308 136.279 253.42 135.887 253.644C135.495 253.868 135.183 254.195 134.949 254.624C134.716 255.053 134.599 255.557 134.599 256.136C134.599 256.724 134.716 257.237 134.949 257.676C135.183 258.105 135.495 258.437 135.887 258.67C136.279 258.894 136.713 259.006 137.189 259.006C137.665 259.006 138.099 258.894 138.491 258.67C138.893 258.437 139.21 258.105 139.443 257.676C139.677 257.237 139.793 256.729 139.793 256.15ZM144.508 253.574C144.732 253.135 145.05 252.795 145.46 252.552C145.88 252.309 146.389 252.188 146.986 252.188V253.504H146.65C145.222 253.504 144.508 254.279 144.508 255.828V260H143.234V252.328H144.508V253.574ZM147.981 256.136C147.981 255.352 148.14 254.666 148.457 254.078C148.774 253.481 149.208 253.019 149.759 252.692C150.319 252.365 150.944 252.202 151.635 252.202C152.232 252.202 152.788 252.342 153.301 252.622C153.814 252.893 154.206 253.252 154.477 253.7V249.64H155.765V260H154.477V258.558C154.225 259.015 153.852 259.393 153.357 259.692C152.862 259.981 152.284 260.126 151.621 260.126C150.94 260.126 150.319 259.958 149.759 259.622C149.208 259.286 148.774 258.815 148.457 258.208C148.14 257.601 147.981 256.911 147.981 256.136ZM154.477 256.15C154.477 255.571 154.36 255.067 154.127 254.638C153.894 254.209 153.576 253.882 153.175 253.658C152.783 253.425 152.349 253.308 151.873 253.308C151.397 253.308 150.963 253.42 150.571 253.644C150.179 253.868 149.866 254.195 149.633 254.624C149.4 255.053 149.283 255.557 149.283 256.136C149.283 256.724 149.4 257.237 149.633 257.676C149.866 258.105 150.179 258.437 150.571 258.67C150.963 258.894 151.397 259.006 151.873 259.006C152.349 259.006 152.783 258.894 153.175 258.67C153.576 258.437 153.894 258.105 154.127 257.676C154.36 257.237 154.477 256.729 154.477 256.15ZM160.634 260.126C160.046 260.126 159.519 260.028 159.052 259.832C158.585 259.627 158.217 259.347 157.946 258.992C157.675 258.628 157.526 258.213 157.498 257.746H158.814C158.851 258.129 159.029 258.441 159.346 258.684C159.673 258.927 160.097 259.048 160.62 259.048C161.105 259.048 161.488 258.941 161.768 258.726C162.048 258.511 162.188 258.241 162.188 257.914C162.188 257.578 162.039 257.331 161.74 257.172C161.441 257.004 160.979 256.841 160.354 256.682C159.785 256.533 159.318 256.383 158.954 256.234C158.599 256.075 158.291 255.847 158.03 255.548C157.778 255.24 157.652 254.839 157.652 254.344C157.652 253.952 157.769 253.593 158.002 253.266C158.235 252.939 158.567 252.683 158.996 252.496C159.425 252.3 159.915 252.202 160.466 252.202C161.315 252.202 162.001 252.417 162.524 252.846C163.047 253.275 163.327 253.863 163.364 254.61H162.09C162.062 254.209 161.899 253.887 161.6 253.644C161.311 253.401 160.919 253.28 160.424 253.28C159.967 253.28 159.603 253.378 159.332 253.574C159.061 253.77 158.926 254.027 158.926 254.344C158.926 254.596 159.005 254.806 159.164 254.974C159.332 255.133 159.537 255.263 159.78 255.366C160.032 255.459 160.377 255.567 160.816 255.688C161.367 255.837 161.815 255.987 162.16 256.136C162.505 256.276 162.799 256.491 163.042 256.78C163.294 257.069 163.425 257.447 163.434 257.914C163.434 258.334 163.317 258.712 163.084 259.048C162.851 259.384 162.519 259.65 162.09 259.846C161.67 260.033 161.185 260.126 160.634 260.126Z" fill="#6C757D"/>
<rect width="468" height="857" transform="translate(0 47)" fill="#471F7A" fill-opacity="0.9"/>
<path d="M421.411 317.559C393.408 317.338 364.938 290.114 345.298 269.726C325.657 249.339 314.75 221.812 314.976 193.201C315.202 164.59 326.543 137.239 346.503 117.164C366.463 97.0898 393.408 68.612 421.411 68.8333L420.558 194.035L421.411 317.559Z" fill="#6F12E7"/>
</g>
<defs>
<clipPath id="clip0_11_192">
<rect width="422" height="748" rx="16" fill="white"/>
</clipPath>
</defs>
</svg>
