<svg width="422" height="896" viewBox="0 0 422 896" fill="none" xmlns="http://www.w3.org/2000/svg">
<g clip-path="url(#clip0_123_317)">
<rect width="422" height="896" rx="16" fill="white"/>
<path d="M106 165.5C169.47 137.955 250.22 35.224 97.8916 -109.356C36.4063 -143.122 -2.04506 -123.425 -13.5851 -109.356C-5.04549 -85.9723 10.7874 -32.191 5.80214 -4.13111C-0.429475 30.9437 -110.521 95.1484 -71.7468 154.003C-40.7272 201.086 62.3786 185.118 106 165.5Z" fill="#471F7A" fill-opacity="0.68"/>
<path d="M33.9758 135.299C88.8362 177.46 211.709 210.95 264.319 7.62916C264.046 -62.5176 228.178 -86.5998 210.278 -89.8725C193.966 -71.0678 154.602 -31.1478 127.643 -21.9053C93.9442 -10.3523 -15.5817 -75.5178 -48.261 -13.0729C-74.4044 36.883 -4.32951 106.657 33.9758 135.299Z" fill="#6F12E7" fill-opacity="0.68"/>
<path d="M94.9999 142C130.346 142 159 113.346 159 77.9999C159 42.6537 130.346 14 94.9999 14C59.6537 14 31 42.6537 31 77.9999C31 113.346 59.6537 142 94.9999 142Z" fill="#49A0AE"/>
<path d="M125.277 80.6982C122.984 87.6368 113.541 93.8427 104.988 89.1152C104.85 91.7469 104.861 94.2449 105.636 96.2378C106.087 97.3959 107.082 97.9882 106.932 99.0431C103.105 98.0335 104.704 92.8756 104.126 88.8989C103.733 86.1976 100.404 84.8677 101.105 81.7764C99.1372 82.0392 97.2626 82.3949 95.2767 82.6393C95.4828 85.4376 98.4944 86.4885 99.5928 88.8978C100.647 91.21 100.954 93.6334 102.183 95.804C103.364 97.895 105.03 99.0004 106.067 101.2C101.048 99.3723 100.708 93.5192 98.5133 89.1139C97.2793 86.6381 94.4567 85.6577 94.1972 82.8554C90.1376 82.8848 87.7234 81.2719 87.0746 77.8913C85.4315 76.6565 83.0343 76.1752 83.4053 72.9272C81.5934 72.2844 80.5525 72.3269 79.3045 73.3588C74.9935 72.7484 70.6671 74.0157 68.2971 71.2003C67.9625 70.8031 67.9625 70.0736 67.6495 69.4732C66.6521 67.5672 64.9311 65.5795 64.6278 63.6452C64.166 60.7024 65.0878 57.5635 66.5692 55.0129C66.3871 52.3834 67.6786 51.2293 68.944 50.048C70.081 46.3633 72.1668 43.6299 74.9872 41.631C75.6624 41.6756 76.5718 41.4843 76.9297 41.8462C78.6941 40.014 80.3991 38.1213 84.0522 38.1778C86.8626 35.5221 91.1323 35.8 95.0595 35.803C96.1166 35.804 97.0514 35.3157 98.0812 35.3706C98.6359 35.4008 99.2301 35.9709 99.8073 36.0182C100.69 36.093 101.73 35.3279 102.614 35.3706C103.118 35.3949 104.149 35.8818 104.772 36.0182C105.817 36.2475 106.668 36.2537 107.362 36.4506C108.003 36.6316 108.457 37.3127 109.089 37.5288C109.353 37.6206 109.955 37.273 110.169 37.3135C112.157 37.6843 114.413 39.476 115.78 40.5504C116.376 40.2938 116.538 39.9389 117.291 40.3341C120.16 41.3588 121.984 44.0288 124.197 46.1621C127.071 48.9331 130.471 52.6672 130.241 58.2498C132.311 59.3058 133.071 64.275 131.751 66.6668C132.676 73.1546 130.252 78.0995 126.787 80.9119C126.087 81.0388 125.784 80.7668 125.277 80.6982ZM96.7867 36.452C97.3768 36.637 99.8883 39.7758 97.4343 40.5528C97.0079 40.0637 97.6636 39.3472 97.4343 38.3944C94.9169 35.2979 88.4685 36.7088 85.3478 38.3944C85.2881 38.7733 85.9552 39.4706 85.3478 39.6899C83.1366 38.1964 79.5683 40.3114 78.0089 42.0637C77.3834 42.8175 78.1291 43.6118 77.146 44.0069C76.3819 43.8351 76.8913 42.3921 75.8515 42.4961C72.6754 43.9958 71.1513 47.1487 69.8082 50.4818C70.5288 50.2646 70.5155 50.781 70.4559 51.3447C67.8091 50.9495 67.2595 53.7316 67.8658 55.8771C64.5965 57.7366 65.0767 66.2295 68.2974 68.3961C68.7806 67.3542 70.4831 65.52 71.7506 66.669C70.2925 67.3682 68.6269 67.8624 68.729 70.123C70.9774 72.601 78.188 73.1587 80.8156 71.2012C81.6906 71.3335 82.0857 71.945 83.1904 71.8488C83.5866 71.5982 83.34 70.7029 84.2685 70.9859C84.1148 74.3773 85.2954 76.435 87.9378 77.0281C88.2603 83.2634 96.3316 82.0051 101.319 80.9137C100.977 79.5879 102.684 79.9112 103.046 78.7553C102.697 77.5205 101.255 77.3819 101.104 75.95C102.579 76.4169 103.629 77.3101 103.694 79.1879C103.598 79.956 102.819 80.0398 102.398 80.4824C106.52 80.1308 112.221 77.6315 111.031 72.7131C110.714 71.4002 109.457 71.3205 108.873 69.9078C113.491 70.6202 112.055 78.2621 108.658 79.189C112.136 78.9992 114.125 77.3174 115.996 75.5186C116.011 74.78 115.702 74.1383 115.996 73.361C116.36 72.399 117.409 72.6555 118.154 71.8502C118.451 71.5298 118.47 70.591 118.802 70.1241C119.742 68.8031 120.994 68.0231 121.823 68.1809C120.845 69.7938 118.861 70.399 118.585 72.7133C114.612 73.533 117.547 76.4637 119.449 77.2436C122.012 78.2967 125.134 79.2325 126.787 79.8337C127.054 79.38 127.384 78.9919 127.65 78.5381C127.073 78.2532 126.387 78.0763 126.571 77.0273C127.628 76.8353 127.584 77.7409 128.729 77.4597C129.512 76.4431 129.956 75.09 130.455 73.7904C130.583 72.9434 129.271 73.5368 129.592 72.4959C131.103 72.4535 130.945 69.5693 130.887 67.3166C130.23 67.2923 129.414 68.2119 129.161 67.3166C129.212 66.2879 130.566 66.5617 131.103 66.021C131.489 63.7048 131.575 59.9799 129.592 59.3309C129.326 59.8554 129.41 60.7315 128.73 60.8407C127.32 59.5016 129.848 58.7559 129.377 56.955C129.367 56.2455 128.455 56.4397 128.514 55.6605C128.925 52.647 126.666 50.4691 125.276 48.538C121.543 47.6962 122.156 52.3064 120.096 52.4226C121.117 50.566 121.293 47.8639 124.197 47.8912C124.31 46.7703 123.268 46.8049 122.686 46.3803C120.943 44.3823 119.494 42.0915 116.643 41.201C116.8 41.9883 118.276 43.8902 116.859 44.2227C115.998 40.8372 113.05 39.5398 109.953 38.3936C110.122 39.4404 111.144 42.3761 109.738 42.926C109.067 41.9175 109.634 39.7618 108.875 38.3936C107.803 37.5731 105.874 36.8746 104.559 37.5307C104.31 36.9889 103.655 36.8517 103.264 36.4525C100.324 37.1493 99.1453 36.5459 96.7867 36.452ZM116.428 76.1658C114.502 77.8624 112.205 79.7805 109.522 80.0503C108.967 80.107 108.386 79.5682 107.795 79.6187C105.95 79.7754 104.164 82.0824 101.752 81.3459C102.433 87.3003 106.671 90.4673 112.975 89.7629C118.617 89.1312 122.515 84.4623 124.198 80.2664C121.983 78.5244 118.33 78.2202 116.428 76.1658Z" fill="#D7AF8F"/>
<path d="M103.262 36.452C103.653 36.8522 104.308 36.9886 104.557 37.5301C105.873 36.8752 107.802 37.5736 108.873 38.393C109.633 39.7612 109.066 41.917 109.736 42.9255C111.143 42.3756 110.121 39.4401 109.951 38.393C113.049 39.539 115.997 40.8367 116.857 44.2221C118.274 43.8897 116.798 41.9878 116.641 41.2005C119.493 42.0909 120.941 44.3818 122.684 46.3798C123.266 46.8044 124.308 46.7698 124.195 47.8906C121.29 47.8644 121.115 50.5658 120.094 52.422C122.154 52.3059 121.541 47.6956 125.274 48.5375C126.664 50.4688 128.923 52.6454 128.512 55.66C128.453 56.4392 129.366 56.245 129.375 56.9545C129.846 58.7543 127.318 59.5011 128.728 60.8401C129.409 60.731 129.325 59.8538 129.59 59.3304C131.573 59.9802 131.487 63.704 131.101 66.0205C130.564 66.5612 129.209 66.2884 129.159 67.3161C129.412 68.2114 130.229 67.2918 130.885 67.3161C130.942 69.5685 131.101 72.453 129.59 72.4954C129.269 73.5363 130.581 72.9432 130.453 73.7899C129.954 75.0895 129.509 76.4426 128.727 77.4592C127.583 77.74 127.626 76.8347 126.569 77.0268C126.384 78.0758 127.071 78.2527 127.648 78.5376C127.382 78.9913 127.051 79.3794 126.785 79.8332C125.131 79.2309 122.009 78.2961 119.447 77.2431C117.547 76.4639 114.612 73.5333 118.586 72.7128C118.862 70.3985 120.846 69.7922 121.824 68.1803C120.995 68.0226 119.741 68.8029 118.803 70.1235C118.47 70.5905 118.452 71.5293 118.155 71.8496C117.41 72.655 116.361 72.3984 115.997 73.3604C115.703 74.1375 116.012 74.7784 115.997 75.5181C114.126 77.3168 112.137 78.9975 108.659 79.1885C112.056 78.2618 113.492 70.6197 108.874 69.9072C109.458 71.32 110.715 71.4007 111.032 72.7125C112.221 77.6309 106.52 80.1311 102.399 80.4819C102.82 80.0392 103.599 79.9555 103.695 79.1874C103.63 77.3098 102.58 76.4164 101.105 75.9494C101.256 77.3814 102.699 77.5207 103.047 78.7547C102.685 79.9109 100.978 79.5874 101.32 80.9132C96.3318 82.0046 88.2613 83.2629 87.9388 77.0276C85.295 76.4334 84.1158 74.3768 84.2695 70.9854C83.3407 70.7034 83.5873 71.5979 83.1913 71.8483C82.0867 71.9452 81.6927 71.333 80.8165 71.2006C78.1881 73.1582 70.9776 72.6002 68.73 70.1225C68.6279 67.8619 70.2934 67.3677 71.7516 66.6684C70.4844 65.5195 68.7815 67.3536 68.2984 68.3956C65.0777 66.229 64.5977 57.7361 67.8668 55.8766C67.2605 53.7311 67.8101 50.949 70.4568 51.3441C70.5176 50.7802 70.5295 50.2649 69.8092 50.4812C71.1523 47.1474 72.6761 43.9953 75.8525 42.4955C76.8923 42.3915 76.3829 43.8346 77.147 44.0063C78.1314 43.6112 77.3844 42.8169 78.0099 42.0631C79.5682 40.3117 83.1365 38.1967 85.3487 39.6894C85.9561 39.4701 85.2891 38.7727 85.3487 38.3938C88.4695 36.7083 94.9179 35.2974 97.4353 38.3938C97.6646 39.3459 97.0089 40.0624 97.4353 40.5523C99.8901 39.7753 97.3786 36.6364 96.7877 36.4514C99.1452 36.5459 100.324 37.1493 103.262 36.452ZM100.24 45.3016C95.5861 45.4199 92.0551 53.8542 98.729 54.3666C99.0099 55.9128 100.459 57.3437 101.966 56.9566C101.022 55.8855 99.492 55.4023 99.1606 53.7197C92.8434 53.3095 96.4776 45.9301 100.888 45.9504C100.596 41.3412 103.719 40.1477 106.283 38.3952C105.975 38.3436 105.919 38.0395 105.635 37.9636C103.086 39.6586 100.029 40.8461 100.24 45.3016ZM85.9956 40.3368C86.6797 41.5232 88.1854 41.8881 88.3693 43.5748C92.155 42.8815 95.783 43.8294 97.6506 45.7343C97.3756 42.9279 92.3238 42.3146 88.8009 42.7127C88.405 41.4879 87.2893 39.9568 85.9956 40.3368ZM109.522 45.9496C111.506 44.9846 113.042 46.853 114.27 46.5972C113.789 45.3592 110.113 43.7849 109.522 45.9496ZM73.2613 47.4604C73.9749 47.9049 74.756 46.8865 76.0677 47.2441C77.3025 47.9506 77.8303 49.3674 78.2254 50.9133C81.8869 50.4888 83.5743 52.039 84.0534 54.799C85.0438 54.715 85.443 54.3088 86.2111 54.3663C88.8457 54.5683 89.5593 58.0975 90.9599 58.8988C90.6436 56.3854 88.3515 52.903 84.4842 53.9339C84.5712 52.4806 83.5746 52.1087 83.1897 51.1286C84.3994 49.7412 87.6404 51.2126 88.5851 50.4818C87.0297 49.0609 83.8112 49.6723 82.3255 50.697C81.4431 50.1401 80.181 49.9632 78.6562 50.0494C78.7731 47.3329 75.0601 44.9824 73.2613 47.4604ZM114.485 53.071C114.753 55.5692 113.304 56.3503 110.816 56.0927C110.587 58.2946 108.12 59.8762 105.852 58.6827C105.173 60.4552 102.192 59.7185 101.319 58.6827C101.92 62.8989 93.2939 61.1891 90.7433 63.6468C88.7393 61.5499 84.0796 62.1098 83.4044 58.6827C82.3735 58.1663 79.9553 57.5165 79.3036 58.8991C82.8132 58.0299 83.8684 61.1526 85.7784 62.5683C88.4879 62.3045 89.5104 63.7275 90.9586 64.7268C93.288 61.8043 100.289 63.5536 102.181 60.1943C102.671 60.5673 103.387 60.7159 104.34 60.6259C105.116 60.3945 105.678 59.9507 106.282 59.5478C108.429 60.6535 110.85 58.7737 111.462 56.9577C114.086 56.992 115.481 55.7975 115.131 52.8568C116.254 52.4698 117.633 52.3364 117.722 50.9144C115.302 53.0397 111.269 52.0574 110.383 49.1873C109.813 51.5794 112.357 52.6659 114.485 53.071ZM116.86 58.037C115.062 61.4184 112.056 63.5922 108.011 64.7271C109.677 65.9357 111.083 64.1027 112.975 64.7271C113.709 65.577 113.474 67.3941 114.054 68.3964C116.205 68.5692 119.997 69.5202 119.881 67.3182C118.58 68.2592 116.651 67.8578 114.702 67.7487C114.118 67.1111 114.34 65.6648 114.054 64.7282C113.663 64.1834 112.636 64.2755 112.327 63.6489C114.183 62.0511 116.584 60.9992 117.724 58.6849C119.664 58.4677 121.061 57.7056 121.392 55.8796C121.347 55.6381 121.153 55.543 120.961 55.4472C120.319 57.0344 119.138 58.0826 116.86 58.037ZM69.1605 58.4664C72.8087 58.2268 74.2517 61.9893 75.8514 64.5097C74.7508 64.8481 73.5322 65.0674 73.2613 66.2358C74.2709 66.6006 75.052 65.0563 76.4993 65.1576C78.4244 66.2541 80.8063 66.8937 81.6794 69.0432C82.4173 68.2589 80.9297 67.0049 81.2479 66.6684C83.0144 66.521 83.9451 68.2379 85.1324 67.9629C84.6695 66.6098 82.0713 65.392 80.5999 66.4521C79.4408 65.308 78.4666 65.7164 77.362 64.9413C74.4413 62.8927 74.1513 56.9647 68.9439 57.6035C68.929 57.9805 68.9927 58.2754 69.1605 58.4664ZM86.4272 70.1225C87.4035 70.4973 87.6206 69.5688 88.5856 69.4737C91.1009 69.229 92.528 70.8592 92.6865 73.5757C94.9997 72.8492 97.2422 73.8555 98.0819 75.3018C99.5301 73.5363 102.833 74.6004 104.125 75.0865C103.621 73.1665 99.818 73.2654 98.2971 74.2225C97.1774 73.1474 95.312 72.2863 93.3331 72.7128C93.4889 69.3009 88.3069 67.0009 86.4272 70.1225ZM125.277 70.7693C126 71.4847 125.259 73.6656 126.14 74.2225C126.731 73.5484 126.279 72.6682 126.571 72.0649C127.621 71.7254 128.996 72.7914 128.945 71.6325C128.384 70.9775 127.008 71.2211 126.14 71.4172C126.019 70.0258 125.334 69.201 123.982 69.0424C123.844 70.1892 125.116 69.9245 125.277 70.7693ZM100.24 79.1874C99.5557 75.991 95.4022 78.4174 92.6857 77.8929C90.6323 77.4937 90.8494 76.0415 89.0164 75.3029C89.179 80.1151 97.206 77.2328 100.24 79.1874Z" fill="#E9C29C"/>
<path d="M105.636 37.9628C105.919 38.0387 105.976 38.3428 106.284 38.3944C103.72 40.1458 100.596 41.3401 100.888 45.9496C96.4783 45.9293 92.8441 53.3087 99.1613 53.7189C99.4926 55.4015 101.023 55.8855 101.967 56.9558C100.46 57.3439 99.0105 55.9128 98.7297 54.3658C92.0557 53.8534 95.5857 45.4191 100.24 45.3008C100.029 40.8461 103.086 39.6586 105.636 37.9628Z" fill="#D7AF8F"/>
<path d="M88.8009 42.7116C92.3238 42.3135 97.3757 42.9268 97.6506 45.7332C95.783 43.8284 92.155 42.8815 88.3693 43.5737C88.1854 41.887 86.6797 41.5222 85.9956 40.3357C87.2893 39.9568 88.405 41.4879 88.8009 42.7116Z" fill="#D7AF8F"/>
<path d="M114.269 46.5961C113.042 46.8519 111.505 44.9832 109.522 45.9485C110.113 43.7849 113.789 45.3592 114.269 46.5961Z" fill="#D7AF8F"/>
<path d="M78.6566 50.0494C80.1814 49.9635 81.4438 50.1404 82.3258 50.697C83.8113 49.6723 87.0301 49.0609 88.5855 50.4818C87.6397 51.2123 84.3998 49.7409 83.1901 51.1286C83.5752 52.1098 84.5726 52.4809 84.4846 53.9339C88.3521 52.903 90.6429 56.3857 90.9603 58.8988C89.5597 58.0975 88.8461 54.5683 86.2115 54.3663C85.4423 54.3077 85.0442 54.715 84.0538 54.7987C83.5747 52.0398 81.8872 50.4885 78.2258 50.9131C77.8307 49.3669 77.3032 47.95 76.0681 47.2438C74.7574 46.8859 73.9753 47.9047 73.2617 47.4601C75.0599 44.9824 78.773 47.3329 78.6566 50.0494Z" fill="#D7AF8F"/>
<path d="M110.385 49.1865C111.27 52.0566 115.304 53.0389 117.724 50.9136C117.635 52.3356 116.256 52.469 115.134 52.856C115.483 55.7958 114.088 56.9912 111.464 56.9569C110.852 58.774 108.43 60.6527 106.284 59.547C105.68 59.9502 105.118 60.3948 104.342 60.6251C103.39 60.7151 102.673 60.5665 102.183 60.1935C100.291 63.5528 93.2901 61.8043 90.9607 64.726C89.5125 63.7275 88.4897 62.3048 85.7805 62.5675C83.8705 61.1526 82.8156 58.0291 79.3057 58.8982C79.9584 57.5157 82.3759 58.1655 83.4065 58.6819C84.0817 62.1087 88.7403 61.5488 90.7454 63.646C93.296 61.1882 101.922 62.8981 101.321 58.6819C102.194 59.7177 105.175 60.4544 105.854 58.6819C108.122 59.8765 110.589 58.2938 110.819 56.0919C113.306 56.3495 114.755 55.5674 114.487 53.0702C112.357 52.6659 109.813 51.5794 110.385 49.1865Z" fill="#D7AF8F"/>
<path d="M120.96 55.4447C121.152 55.5406 121.346 55.6346 121.392 55.8774C121.061 57.7045 119.664 58.4664 117.724 58.6827C116.584 60.997 114.184 62.049 112.327 63.6468C112.636 64.2734 113.663 64.1813 114.054 64.726C114.34 65.6637 114.118 67.1089 114.702 67.7466C116.652 67.8557 118.579 68.257 119.881 67.3161C119.997 69.5191 116.205 68.5671 114.054 68.3942C113.474 67.3917 113.709 65.5746 112.975 64.7249C111.082 64.1005 109.678 65.9335 108.011 64.7249C112.055 63.5901 115.063 61.4162 116.86 58.0348C119.137 58.0826 120.319 57.0344 120.96 55.4447Z" fill="#D7AF8F"/>
<path d="M68.944 57.6046C74.1514 56.9658 74.4415 62.893 77.3621 64.9423C78.4668 65.7185 79.4399 65.3091 80.6001 66.4532C82.0715 65.3931 84.6697 66.6109 85.1326 67.964C83.9451 68.2378 83.0144 66.5218 81.248 66.6695C80.9296 67.006 82.4183 68.2592 81.6796 69.0443C80.8065 66.8947 78.4246 66.2552 76.4995 65.1587C75.0532 65.0577 74.2711 66.6028 73.2615 66.2368C73.5324 65.0685 74.751 64.8494 75.8516 64.5108C74.2519 61.9904 72.8097 58.2271 69.1607 58.4675C68.9927 58.2754 68.9289 57.9805 68.944 57.6046Z" fill="#D7AF8F"/>
<path d="M93.3332 72.7125C95.3118 72.2861 97.1775 73.1471 98.2972 74.2223C99.8172 73.2662 103.621 73.1663 104.125 75.0862C102.833 74.6001 99.5291 73.536 98.082 75.3015C97.2412 73.8555 94.9998 72.8489 92.6866 73.5754C92.5289 70.859 91.102 69.229 88.5857 69.4735C87.6207 69.5685 87.4044 70.4971 86.4272 70.1222C88.3067 67.0009 93.4887 69.3009 93.3332 72.7125Z" fill="#D7AF8F"/>
<path d="M123.982 69.0432C125.334 69.201 126.02 70.0266 126.14 71.418C127.008 71.222 128.385 70.9775 128.945 71.6333C128.996 72.7914 127.621 71.7262 126.571 72.0657C126.279 72.669 126.731 73.5492 126.14 74.2233C125.259 73.6664 126 71.4856 125.277 70.7701C125.116 69.9245 123.844 70.1892 123.982 69.0432Z" fill="#D7AF8F"/>
<path d="M89.0171 75.3018C90.8493 76.0404 90.633 77.4937 92.6864 77.8918C95.4028 78.4174 99.5564 75.9899 100.241 79.1863C97.2059 77.2328 89.1789 80.1151 89.0171 75.3018Z" fill="#D7AF8F"/>
<path d="M124.199 80.2666C122.515 84.4626 118.617 89.1314 112.975 89.7631C106.671 90.4675 102.433 87.2995 101.752 81.3461C104.164 82.0829 105.95 79.7756 107.795 79.619C108.386 79.5685 108.967 80.1062 109.522 80.0506C112.206 79.7808 114.503 77.8627 116.428 76.166C118.33 78.2202 121.983 78.5244 124.199 80.2666Z" fill="#E9C29C"/>
<path d="M126.572 118.038C124.74 113.727 121.24 106.14 119.881 100.123C118.263 92.9574 126.94 84.4847 130.027 80.2666C133.862 75.0238 135.346 66.064 133.265 57.6043C131.489 50.3918 126.912 45.5914 121.178 41.6321C114.504 37.024 105.781 33.2485 94.1984 34.0771C89.1588 34.438 83.1417 36.2529 78.8741 38.1791C71.1261 41.6737 64.5229 48.3071 63.3346 58.0359C63.0769 60.1438 63.6903 62.3944 63.5509 64.9413C63.1588 72.1113 57.4409 74.5631 54.0544 79.6179C56.023 82.8143 63.5882 84.5425 59.0185 89.7621C59.6542 90.9969 61.9996 90.5221 62.6878 91.7045C62.8433 93.4438 60.7413 92.9233 60.314 94.0793C61.4338 95.7468 62.4382 95.6981 62.9041 97.3173C64.2078 101.849 59.1954 107.354 65.9257 108.325C71.9237 109.189 78.563 105.853 84.9196 107.03C86.6062 108.304 87.3714 110.756 87.9412 113.506C88.4414 115.918 89.7119 118.859 88.8041 120.627C86.6052 120.211 86.6041 117.148 86.2141 115.016C85.7655 112.563 85.3712 110.355 84.0564 108.973C75.5262 107.823 68.0742 113.057 62.2572 109.19C61.2569 108.524 60.2916 107.01 60.0988 105.952C59.638 103.431 61.4662 101.256 60.9617 98.3976C60.5806 96.2329 56.8346 95.4173 59.0193 92.3543C56.1159 91.7439 57.1446 87.7532 58.5877 86.311C56.9888 83.352 52.2565 83.8271 52.1128 79.8361C52.0048 76.8318 55.1779 75.5554 56.6453 74.007C58.2744 72.292 60.9614 68.6003 61.3941 66.2376C61.8459 63.7688 61.0959 61.3676 61.1777 59.5475C61.665 48.8221 68.4034 41.449 76.2868 37.3167C80.7344 34.9843 86.4604 33.2531 91.395 32.3527C103.606 30.1224 116.417 35.3449 124.418 41.4176C132.087 47.2386 136.946 55.6619 136.289 67.534C135.88 74.9182 133.734 78.9759 130.03 83.5062C128.386 85.5162 126.735 87.5091 125.282 89.7648C123.834 92.0124 121.521 95.6382 121.828 99.046C122.115 102.226 123.783 105.729 124.85 108.759C125.92 111.798 127.779 114.585 127.872 118.04H126.572V118.038H126.572Z" fill="#BEBEBE"/>
</g>
<defs>
<clipPath id="clip0_123_317">
<rect width="422" height="896" rx="16" fill="white"/>
</clipPath>
</defs>
</svg>
